{
  "accessors": [
    {
      "bufferView": 2,
      "componentType": 5126,
      "count": 65532,
      "max": [
        4044.92626953125,
        4763.29248046875,
        1061.91796875
      ],
      "min": [
        -2924.6064453125,
        1856.24462890625,
        -914.3033447265625
      ],
      "type": "VEC3"
    },
    {
      "bufferView": 2,
      "byteOffset": 786384,
      "componentType": 5126,
      "count": 65532,
      "max": [
        0.99999910593032837,
        0.99927890300750732,
        0.99999725818634033
      ],
      "min": [
        -0.99994385242462158,
        -0.9999350905418396,
        -0.99987035989761353
      ],
      "type": "VEC3"
    },
    {
      "bufferView": 3,
      "componentType": 5126,
      "count": 65532,
      "max": [
        0.99607843160629272,
        0.99607843160629272,
        0.98823529481887817,
        1
      ],
      "min": [
        0,
        0,
        0,
        1
      ],
      "type": "VEC4"
    },
    {
      "bufferView": 1,
      "componentType": 5126,
      "count": 65532,
      "max": [
        0.9804379940032959,
        1
      ],
      "min": [
        0.11365199834108353,
        0
      ],
      "type": "VEC2"
    },
    {
      "bufferView": 0,
      "componentType": 5125,
      "count": 358449,
      "max": [
        65531
      ],
      "min": [
        0
      ],
      "type": "SCALAR"
    },
    {
      "bufferView": 2,
      "byteOffset": 1572768,
      "componentType": 5126,
      "count": 65532,
      "max": [
        2774.71044921875,
        5162.41943359375,
        1271.4495849609375
      ],
      "min": [
        -3394.94140625,
        2218.462646484375,
        -647.9293212890625
      ],
      "type": "VEC3"
    },
    {
      "bufferView": 2,
      "byteOffset": 2359152,
      "componentType": 5126,
      "count": 65532,
      "max": [
        0.99997425079345703,
        0.99696600437164307,
        0.9999963641166687
      ],
      "min": [
        -0.99996590614318848,
        -0.99997848272323608,
        -0.99964910745620728
      ],
      "type": "VEC3"
    },
    {
      "bufferView": 3,
      "byteOffset": 1048512,
      "componentType": 5126,
      "count": 65532,
      "max": [
        0.99215686321258545,
        0.99215686321258545,
        0.98039215803146362,
        1
      ],
      "min": [
        0,
        0.0078431377187371254,
        0,
        1
      ],
      "type": "VEC4"
    },
    {
      "bufferView": 1,
      "byteOffset": 524256,
      "componentType": 5126,
      "count": 65532,
      "max": [
        0.9792640209197998,
        1
      ],
      "min": [
        0.00010900000052060932,
        0
      ],
      "type": "VEC2"
    },
    {
      "bufferView": 0,
      "byteOffset": 1433796,
      "componentType": 5125,
      "count": 339738,
      "max": [
        65531
      ],
      "min": [
        0
      ],
      "type": "SCALAR"
    },
    {
      "bufferView": 2,
      "byteOffset": 3145536,
      "componentType": 5126,
      "count": 65532,
      "max": [
        2648.42724609375,
        5861.40283203125,
        1461.9337158203125
      ],
      "min": [
        -3982.740234375,
        2687.74267578125,
        -385.41162109375
      ],
      "type": "VEC3"
    },
    {
      "bufferView": 2,
      "byteOffset": 3931920,
      "componentType": 5126,
      "count": 65532,
      "max": [
        0.99999523162841797,
        0.99932700395584106,
        0.99999988079071045
      ],
      "min": [
        -0.99991434812545776,
        -0.99993014335632324,
        -0.99999576807022095
      ],
      "type": "VEC3"
    },
    {
      "bufferView": 3,
      "byteOffset": 2097024,
      "componentType": 5126,
      "count": 65532,
      "max": [
        0.99607843160629272,
        0.99215686321258545,
        0.98039215803146362,
        1
      ],
      "min": [
        0,
        0.019607843831181526,
        0,
        1
      ],
      "type": "VEC4"
    },
    {
      "bufferView": 1,
      "byteOffset": 1048512,
      "componentType": 5126,
      "count": 65532,
      "max": [
        0.94944500923156738,
        1
      ],
      "min": [
        0,
        0
      ],
      "type": "VEC2"
    },
    {
      "bufferView": 0,
      "byteOffset": 2792748,
      "componentType": 5125,
      "count": 326928,
      "max": [
        65531
      ],
      "min": [
        0
      ],
      "type": "SCALAR"
    },
    {
      "bufferView": 2,
      "byteOffset": 4718304,
      "componentType": 5126,
      "count": 61071,
      "max": [
        2379.900390625,
        6804.93603515625,
        2157.034912109375
      ],
      "min": [
        -4080.14306640625,
        3138.0107421875,
        -119.6141357421875
      ],
      "type": "VEC3"
    },
    {
      "bufferView": 2,
      "byteOffset": 5451156,
      "componentType": 5126,
      "count": 61071,
      "max": [
        0.99997377395629883,
        0.99947422742843628,
        0.99998378753662109
      ],
      "min": [
        -0.99997466802597046,
        -0.99991464614868164,
        -0.99984735250473022
      ],
      "type": "VEC3"
    },
    {
      "bufferView": 3,
      "byteOffset": 3145536,
      "componentType": 5126,
      "count": 61071,
      "max": [
        0.99215686321258545,
        0.99215686321258545,
        0.95686274766921997,
        1
      ],
      "min": [
        0,
        0,
        0,
        1
      ],
      "type": "VEC4"
    },
    {
      "bufferView": 1,
      "byteOffset": 1572768,
      "componentType": 5126,
      "count": 61071,
      "max": [
        0.9962419867515564,
        1
      ],
      "min": [
        0,
        0.00014000000373926014
      ],
      "type": "VEC2"
    },
    {
      "bufferView": 0,
      "byteOffset": 4100460,
      "componentType": 5125,
      "count": 315459,
      "max": [
        61070
      ],
      "min": [
        0
      ],
      "type": "SCALAR"
    },
    {
      "bufferView": 2,
      "byteOffset": 6184008,
      "componentType": 5126,
      "count": 65532,
      "max": [
        3087.22314453125,
        4883.43212890625,
        1047.202880859375
      ],
      "min": [
        -2847.56982421875,
        1090.420166015625,
        -1363.623046875
      ],
      "type": "VEC3"
    },
    {
      "bufferView": 2,
      "byteOffset": 6970392,
      "componentType": 5126,
      "count": 65532,
      "max": [
        0.9999992847442627,
        0.99838060140609741,
        0.99999517202377319
      ],
      "min": [
        -0.99998319149017334,
        -0.99998766183853149,
        -0.99998706579208374
      ],
      "type": "VEC3"
    },
    {
      "bufferView": 3,
      "byteOffset": 4122672,
      "componentType": 5126,
      "count": 65532,
      "max": [
        0.99215686321258545,
        0.99215686321258545,
        0.94509804248809814,
        1
      ],
      "min": [
        0,
        0,
        0,
        1
      ],
      "type": "VEC4"
    },
    {
      "bufferView": 1,
      "byteOffset": 2061336,
      "componentType": 5126,
      "count": 65532,
      "max": [
        2,
        0.98622697591781616
      ],
      "min": [
        1,
        0.0014819999923929572
      ],
      "type": "VEC2"
    },
    {
      "bufferView": 0,
      "byteOffset": 5362296,
      "componentType": 5125,
      "count": 331020,
      "max": [
        65531
      ],
      "min": [
        0
      ],
      "type": "SCALAR"
    },
    {
      "bufferView": 2,
      "byteOffset": 7756776,
      "componentType": 5126,
      "count": 65532,
      "max": [
        2144.3369140625,
        6079.943359375,
        1607.485595703125
      ],
      "min": [
        -2318.85888671875,
        3648.991943359375,
        156.84353637695312
      ],
      "type": "VEC3"
    },
    {
      "bufferView": 2,
      "byteOffset": 8543160,
      "componentType": 5126,
      "count": 65532,
      "max": [
        0.99999475479125977,
        0.99824309349060059,
        0.99999582767486572
      ],
      "min": [
        -0.99996680021286011,
        -0.99999731779098511,
        -0.99964678287506104
      ],
      "type": "VEC3"
    },
    {
      "bufferView": 3,
      "byteOffset": 5171184,
      "componentType": 5126,
      "count": 65532,
      "max": [
        0.99607843160629272,
        0.99607843160629272,
        0.98039215803146362,
        1
      ],
      "min": [
        0.0078431377187371254,
        0.027450980618596077,
        0,
        1
      ],
      "type": "VEC4"
    },
    {
      "bufferView": 1,
      "byteOffset": 2585592,
      "componentType": 5126,
      "count": 65532,
      "max": [
        1.9990160465240479,
        0.97994697093963623
      ],
      "min": [
        1,
        0.0022179998923093081
      ],
      "type": "VEC2"
    },
    {
      "bufferView": 0,
      "byteOffset": 6686376,
      "componentType": 5125,
      "count": 349452,
      "max": [
        65531
      ],
      "min": [
        0
      ],
      "type": "SCALAR"
    },
    {
      "bufferView": 2,
      "byteOffset": 9329544,
      "componentType": 5126,
      "count": 65532,
      "max": [
        2135.75146484375,
        7211.322265625,
        2758.10400390625
      ],
      "min": [
        -4168.40283203125,
        3831.598876953125,
        323.33596801757812
      ],
      "type": "VEC3"
    },
    {
      "bufferView": 2,
      "byteOffset": 10115928,
      "componentType": 5126,
      "count": 65532,
      "max": [
        0.99996757507324219,
        0.99966102838516235,
        0.99993258714675903
      ],
      "min": [
        -0.99998730421066284,
        -0.99996113777160645,
        -0.99978768825531006
      ],
      "type": "VEC3"
    },
    {
      "bufferView": 3,
      "byteOffset": 6219696,
      "componentType": 5126,
      "count": 65532,
      "max": [
        0.9843137264251709,
        0.9843137264251709,
        0.98039215803146362,
        1
      ],
      "min": [
        0,
        0,
        0,
        1
      ],
      "type": "VEC4"
    },
    {
      "bufferView": 1,
      "byteOffset": 3109848,
      "componentType": 5126,
      "count": 65532,
      "max": [
        1.9974750280380249,
        0.96607702970504761
      ],
      "min": [
        1,
        0.00035700001171790063
      ],
      "type": "VEC2"
    },
    {
      "bufferView": 0,
      "byteOffset": 8084184,
      "componentType": 5125,
      "count": 328371,
      "max": [
        65531
      ],
      "min": [
        0
      ],
      "type": "SCALAR"
    },
    {
      "bufferView": 2,
      "byteOffset": 10902312,
      "componentType": 5126,
      "count": 18115,
      "max": [
        2712.18115234375,
        7160.1748046875,
        2672.278076171875
      ],
      "min": [
        -4789.39697265625,
        2557.031982421875,
        312.83694458007812
      ],
      "type": "VEC3"
    },
    {
      "bufferView": 2,
      "byteOffset": 11119692,
      "componentType": 5126,
      "count": 18115,
      "max": [
        0.99972283840179443,
        0.99553430080413818,
        0.99994152784347534
      ],
      "min": [
        -0.99989062547683716,
        -0.99988210201263428,
        -0.99979317188262939
      ],
      "type": "VEC3"
    },
    {
      "bufferView": 3,
      "byteOffset": 7268208,
      "componentType": 5126,
      "count": 18115,
      "max": [
        0.97647058963775635,
        0.97647058963775635,
        0.92941176891326904,
        1
      ],
      "min": [
        0,
        0,
        0.0078431377187371254,
        1
      ],
      "type": "VEC4"
    },
    {
      "bufferView": 1,
      "byteOffset": 3634104,
      "componentType": 5126,
      "count": 18115,
      "max": [
        1.9988360404968262,
        0.96605199575424194
      ],
      "min": [
        1,
        0.0034519999753683805
      ],
      "type": "VEC2"
    },
    {
      "bufferView": 0,
      "byteOffset": 9397668,
      "componentType": 5125,
      "count": 71523,
      "max": [
        18114
      ],
      "min": [
        0
      ],
      "type": "SCALAR"
    },
    {
      "bufferView": 2,
      "byteOffset": 11337072,
      "componentType": 5126,
      "count": 65532,
      "max": [
        2855.0703125,
        3996.016357421875,
        390.9398193359375
      ],
      "min": [
        -2200.172119140625,
        102.96728515625,
        -1980.5880126953125
      ],
      "type": "VEC3"
    },
    {
      "bufferView": 2,
      "byteOffset": 12123456,
      "componentType": 5126,
      "count": 65532,
      "max": [
        0.99992161989212036,
        0.99724364280700684,
        0.99998122453689575
      ],
      "min": [
        -0.99999386072158813,
        -0.99997997283935547,
        -0.99988889694213867
      ],
      "type": "VEC3"
    },
    {
      "bufferView": 3,
      "byteOffset": 7558048,
      "componentType": 5126,
      "count": 65532,
      "max": [
        0.99215686321258545,
        0.99215686321258545,
        0.9529411792755127,
        1
      ],
      "min": [
        0,
        0,
        0,
        1
      ],
      "type": "VEC4"
    },
    {
      "bufferView": 1,
      "byteOffset": 3779024,
      "componentType": 5126,
      "count": 65532,
      "max": [
        2.999596118927002,
        0.99204200506210327
      ],
      "min": [
        2.0002150535583496,
        0.020139999687671661
      ],
      "type": "VEC2"
    },
    {
      "bufferView": 0,
      "byteOffset": 9683760,
      "componentType": 5125,
      "count": 369858,
      "max": [
        65531
      ],
      "min": [
        0
      ],
      "type": "SCALAR"
    },
    {
      "bufferView": 2,
      "byteOffset": 12909840,
      "componentType": 5126,
      "count": 65532,
      "max": [
        2627.03759765625,
        5321.02685546875,
        1255.1199951171875
      ],
      "min": [
        -2452.87353515625,
        2288.306396484375,
        -602.9415283203125
      ],
      "type": "VEC3"
    },
    {
      "bufferView": 2,
      "byteOffset": 13696224,
      "componentType": 5126,
      "count": 65532,
      "max": [
        0.99999523162841797,
        0.99929302930831909,
        0.99999797344207764
      ],
      "min": [
        -0.99999910593032837,
        -0.99993574619293213,
        -0.99996846914291382
      ],
      "type": "VEC3"
    },
    {
      "bufferView": 3,
      "byteOffset": 8606560,
      "componentType": 5126,
      "count": 65532,
      "max": [
        0.99607843160629272,
        0.99607843160629272,
        0.99607843160629272,
        1
      ],
      "min": [
        0,
        0.0039215688593685627,
        0,
        1
      ],
      "type": "VEC4"
    },
    {
      "bufferView": 1,
      "byteOffset": 4303280,
      "componentType": 5126,
      "count": 65532,
      "max": [
        3,
        0.98669302463531494
      ],
      "min": [
        2,
        0.00023400000645779073
      ],
      "type": "VEC2"
    },
    {
      "bufferView": 0,
      "byteOffset": 11163192,
      "componentType": 5125,
      "count": 359937,
      "max": [
        65531
      ],
      "min": [
        0
      ],
      "type": "SCALAR"
    },
    {
      "bufferView": 2,
      "byteOffset": 14482608,
      "componentType": 5126,
      "count": 44555,
      "max": [
        2127.9482421875,
        7774.61328125,
        3233.779296875
      ],
      "min": [
        -4177.8232421875,
        547.001708984375,
        -1797.3800048828125
      ],
      "type": "VEC3"
    },
    {
      "bufferView": 2,
      "byteOffset": 15017268,
      "componentType": 5126,
      "count": 44555,
      "max": [
        0.99996161460876465,
        0.99961024522781372,
        0.99998587369918823
      ],
      "min": [
        -0.99997788667678833,
        -0.99981999397277832,
        -0.99911123514175415
      ],
      "type": "VEC3"
    },
    {
      "bufferView": 3,
      "byteOffset": 9655072,
      "componentType": 5126,
      "count": 44555,
      "max": [
        0.98823529481887817,
        0.9686274528503418,
        0.94509804248809814,
        1
      ],
      "min": [
        0.0039215688593685627,
        0.0039215688593685627,
        0.0039215688593685627,
        1
      ],
      "type": "VEC4"
    },
    {
      "bufferView": 1,
      "byteOffset": 4827536,
      "componentType": 5126,
      "count": 44555,
      "max": [
        2.9943010807037354,
        0.98584598302841187
      ],
      "min": [
        2,
        3.9999999899009708e-06
      ],
      "type": "VEC2"
    },
    {
      "bufferView": 0,
      "byteOffset": 12602940,
      "componentType": 5125,
      "count": 248874,
      "max": [
        44554
      ],
      "min": [
        0
      ],
      "type": "SCALAR"
    }
  ],
  "asset": {
    "extras": {
      "author": "Nikitos & 3130 (https://sketchfab.com/vrcityphoto)",
      "license": "CC-BY-4.0 (http://creativecommons.org/licenses/by/4.0/)",
      "source": "https://sketchfab.com/3d-models/night-city-japan-32bdbc1bdf8f43eaa4df6f4d25723d1d",
      "title": "NIGHT CITY JAPAN"
    },
    "generator": "Sketchfab-8.12.1",
    "version": "2.0"
  },
  "bufferViews": [
    {
      "buffer": 0,
      "byteLength": 13598436,
      "byteOffset": 0,
      "name": "floatBufferViews",
      "target": 34963
    },
    {
      "buffer": 0,
      "byteLength": 5183976,
      "byteOffset": 13598436,
      "byteStride": 8,
      "name": "floatBufferViews",
      "target": 34962
    },
    {
      "buffer": 0,
      "byteLength": 15551928,
      "byteOffset": 18782412,
      "byteStride": 12,
      "name": "floatBufferViews",
      "target": 34962
    },
    {
      "buffer": 0,
      "byteLength": 10367952,
      "byteOffset": 34334340,
      "byteStride": 16,
      "name": "floatBufferViews",
      "target": 34962
    }
  ],
  "buffers": [
    {
      "byteLength": 44702292,
      "uri": "scene.bin"
    }
  ],
  "extensionsUsed": [
    "KHR_materials_unlit"
  ],
  "images": [
    {
      "uri": "textures/JAPAN_CITY.1001_baseColor.jpeg"
    },
    {
      "uri": "textures/JAPAN_CITY.1002_baseColor.jpeg"
    },
    {
      "uri": "textures/JAPAN_CITY.1003_baseColor.jpeg"
    }
  ],
  "materials": [
    {
      "doubleSided": true,
      "emissiveFactor": [
        0,
        0,
        0
      ],
      "extensions": {
        "KHR_materials_unlit": {}
      },
      "name": "JAPAN_CITY.1001",
      "pbrMetallicRoughness": {
        "baseColorFactor": [
          1,
          1,
          1,
          1
        ],
        "baseColorTexture": {
          "index": 0,
          "texCoord": 0
        },
        "metallicFactor": 0,
        "roughnessFactor": 1
      }
    },
    {
      "doubleSided": true,
      "emissiveFactor": [
        0,
        0,
        0
      ],
      "extensions": {
        "KHR_materials_unlit": {}
      },
      "name": "JAPAN_CITY.1002",
      "pbrMetallicRoughness": {
        "baseColorFactor": [
          1,
          1,
          1,
          1
        ],
        "baseColorTexture": {
          "index": 1,
          "texCoord": 0
        },
        "metallicFactor": 0,
        "roughnessFactor": 1
      }
    },
    {
      "doubleSided": true,
      "emissiveFactor": [
        0,
        0,
        0
      ],
      "extensions": {
        "KHR_materials_unlit": {}
      },
      "name": "JAPAN_CITY.1003",
      "pbrMetallicRoughness": {
        "baseColorFactor": [
          1,
          1,
          1,
          1
        ],
        "baseColorTexture": {
          "index": 2,
          "texCoord": 0
        },
        "metallicFactor": 0,
        "roughnessFactor": 1
      }
    }
  ],
  "meshes": [
    {
      "primitives": [
        {
          "attributes": {
            "COLOR_0": 2,
            "NORMAL": 1,
            "POSITION": 0,
            "TEXCOORD_0": 3
          },
          "indices": 4,
          "material": 0,
          "mode": 4
        }
      ]
    },
    {
      "primitives": [
        {
          "attributes": {
            "COLOR_0": 7,
            "NORMAL": 6,
            "POSITION": 5,
            "TEXCOORD_0": 8
          },
          "indices": 9,
          "material": 0,
          "mode": 4
        }
      ]
    },
    {
      "primitives": [
        {
          "attributes": {
            "COLOR_0": 12,
            "NORMAL": 11,
            "POSITION": 10,
            "TEXCOORD_0": 13
          },
          "indices": 14,
          "material": 0,
          "mode": 4
        }
      ]
    },
    {
      "primitives": [
        {
          "attributes": {
            "COLOR_0": 17,
            "NORMAL": 16,
            "POSITION": 15,
            "TEXCOORD_0": 18
          },
          "indices": 19,
          "material": 0,
          "mode": 4
        }
      ]
    },
    {
      "primitives": [
        {
          "attributes": {
            "COLOR_0": 22,
            "NORMAL": 21,
            "POSITION": 20,
            "TEXCOORD_0": 23
          },
          "indices": 24,
          "material": 1,
          "mode": 4
        }
      ]
    },
    {
      "primitives": [
        {
          "attributes": {
            "COLOR_0": 27,
            "NORMAL": 26,
            "POSITION": 25,
            "TEXCOORD_0": 28
          },
          "indices": 29,
          "material": 1,
          "mode": 4
        }
      ]
    },
    {
      "primitives": [
        {
          "attributes": {
            "COLOR_0": 32,
            "NORMAL": 31,
            "POSITION": 30,
            "TEXCOORD_0": 33
          },
          "indices": 34,
          "material": 1,
          "mode": 4
        }
      ]
    },
    {
      "primitives": [
        {
          "attributes": {
            "COLOR_0": 37,
            "NORMAL": 36,
            "POSITION": 35,
            "TEXCOORD_0": 38
          },
          "indices": 39,
          "material": 1,
          "mode": 4
        }
      ]
    },
    {
      "primitives": [
        {
          "attributes": {
            "COLOR_0": 42,
            "NORMAL": 41,
            "POSITION": 40,
            "TEXCOORD_0": 43
          },
          "indices": 44,
          "material": 2,
          "mode": 4
        }
      ]
    },
    {
      "primitives": [
        {
          "attributes": {
            "COLOR_0": 47,
            "NORMAL": 46,
            "POSITION": 45,
            "TEXCOORD_0": 48
          },
          "indices": 49,
          "material": 2,
          "mode": 4
        }
      ]
    },
    {
      "primitives": [
        {
          "attributes": {
            "COLOR_0": 52,
            "NORMAL": 51,
            "POSITION": 50,
            "TEXCOORD_0": 53
          },
          "indices": 54,
          "material": 2,
          "mode": 4
        }
      ]
    }
  ],
  "nodes": [
    {
      "children": [
        1
      ],
      "name": "RootNode (gltf orientation matrix)",
      "rotation": [
        -0.70710678118654746,
        -0,
        -0,
        0.70710678118654757
      ]
    },
    {
      "children": [
        2
      ],
      "matrix": [
        1,
        0,
        0,
        0,
        0,
        0.85869210958480835,
        -0.51249188184738159,
        0,
        0,
        0.51249188184738159,
        0.85869210958480835,
        0,
        0,
        235.45849609375,
        2107.14013671875,
        1
      ],
      "name": "RootNode (model correction matrix)"
    },
    {
      "children": [
        3,
        4,
        5,
        6,
        7,
        8,
        9,
        10,
        11,
        12,
        13
      ],
      "name": "JAPAN CITY.obj.cleaner.materialmerger.gles"
    },
    {
      "mesh": 0,
      "name": ""
    },
    {
      "mesh": 1,
      "name": ""
    },
    {
      "mesh": 2,
      "name": ""
    },
    {
      "mesh": 3,
      "name": ""
    },
    {
      "mesh": 4,
      "name": ""
    },
    {
      "mesh": 5,
      "name": ""
    },
    {
      "mesh": 6,
      "name": ""
    },
    {
      "mesh": 7,
      "name": ""
    },
    {
      "mesh": 8,
      "name": ""
    },
    {
      "mesh": 9,
      "name": ""
    },
    {
      "mesh": 10,
      "name": ""
    }
  ],
  "samplers": [
    {
      "magFilter": 9729,
      "minFilter": 9987,
      "wrapS": 10497,
      "wrapT": 10497
    }
  ],
  "scene": 0,
  "scenes": [
    {
      "name": "OSG_Scene",
      "nodes": [
        0
      ]
    }
  ],
  "textures": [
    {
      "sampler": 0,
      "source": 0
    },
    {
      "sampler": 0,
      "source": 1
    },
    {
      "sampler": 0,
      "source": 2
    }
  ]
}

